<?xml version="1.0" encoding="UTF-8"?>
<svg version="1.1" xmlns="http://www.w3.org/2000/svg" width="2000" height="2000">
<path d="M0 0 C660 0 1320 0 2000 0 C2000 660 2000 1320 2000 2000 C1340 2000 680 2000 0 2000 C0 1340 0 680 0 0 Z " fill="#FEFEFE" transform="translate(0,0)"/>
<path d="M0 0 C28.38 0 56.76 0 86 0 C86 33.33 86 66.66 86 101 C119.99 101 153.98 101 189 101 C189 67.67 189 34.34 189 0 C217.38 0 245.76 0 275 0 C275.33 64.68 275.66 129.36 276 196 C282.27 178.84 288.54 161.68 295 144 C301.01439478 127.69782469 301.01439478 127.69782469 303.78076172 120.25616455 C305.81254302 114.79036914 307.83973597 109.32287139 309.8671875 103.85546875 C310.49267487 102.16901245 310.49267487 102.16901245 311.13079834 100.44848633 C315.65459741 88.24507274 320.14780796 76.03042572 324.64178467 63.81600952 C337.05217048 30.09024372 337.05217048 30.09024372 342.47900391 15.56439209 C342.98673685 14.20490417 343.49359543 12.84508933 343.99951172 11.48492432 C344.66875328 9.68682301 345.34204026 7.89022883 346.015625 6.09375 C346.56138184 4.63485352 346.56138184 4.63485352 347.11816406 3.14648438 C348 1 348 1 349 0 C350.41678911 -0.09550698 351.83831241 -0.12188483 353.25831604 -0.12025452 C354.63609222 -0.12231651 354.63609222 -0.12231651 356.04170227 -0.12442017 C357.56515511 -0.11902725 357.56515511 -0.11902725 359.11938477 -0.11352539 C360.18266998 -0.11367142 361.2459552 -0.11381744 362.34146118 -0.1139679 C365.87479658 -0.11326825 369.40808 -0.10547343 372.94140625 -0.09765625 C375.38378368 -0.09579225 377.82616149 -0.09436827 380.26853943 -0.09336853 C386.71134464 -0.08954189 393.15412748 -0.07971037 399.59692383 -0.06866455 C406.16552426 -0.05845356 412.7341283 -0.05387158 419.30273438 -0.04882812 C432.20183249 -0.03808823 445.10091506 -0.02120104 458 0 C458.19576756 0.54246431 458.39153511 1.08492863 458.59323502 1.64383125 C460.67350634 7.4075884 462.75513081 13.17085564 464.83746338 18.93386841 C465.60936034 21.07067099 466.38093795 23.20758897 467.15216064 25.34463501 C472.2785784 39.54899718 477.46672598 53.72821912 482.75 67.875 C483.14919647 68.94542542 483.54839294 70.01585083 483.95968628 71.11871338 C484.87454463 73.57037389 485.7907166 76.02153977 486.70703125 78.47265625 C491.65858591 91.73732275 496.54723603 105.02514386 501.4375 118.3125 C503.21217172 123.13413957 504.98688742 127.95576293 506.76171875 132.77734375 C507.1974118 133.96101532 507.63310486 135.14468689 508.08200073 136.36422729 C511.07608583 144.49631458 514.07667565 152.62597774 517.08203125 160.75390625 C517.68083351 162.37335899 517.68083351 162.37335899 518.29173279 164.02552795 C520.17210467 169.11017652 522.05332353 174.1945106 523.93530273 179.27856445 C524.59749723 181.06852075 525.2596882 182.85847836 525.921875 184.6484375 C526.22184891 185.45805435 526.52182281 186.2676712 526.83088684 187.1018219 C527.92402516 190.05738132 529.00341325 193.01023975 530 196 C530.33 131.32 530.66 66.64 531 0 C566.2378125 -0.0928125 566.2378125 -0.0928125 602.1875 -0.1875 C609.56633545 -0.21481201 616.9451709 -0.24212402 624.54760742 -0.27026367 C633.65686035 -0.28381348 633.65686035 -0.28381348 637.94038391 -0.28633118 C640.89036528 -0.2890919 643.84017964 -0.30019443 646.79011536 -0.31672668 C663.73553774 -0.4075174 680.28839507 -0.21097239 697 3 C698.74068001 3.31847649 698.74068001 3.31847649 700.51652527 3.64338684 C729.73402241 9.32928396 755.43485947 22.7189484 777 43 C777.60199219 43.53753906 778.20398437 44.07507813 778.82421875 44.62890625 C786.78321029 52.03132495 792.65216706 61.64129236 798 71 C798.33 47.57 798.66 24.14 799 0 C852.26534988 -0.08462097 905.53069817 -0.16527392 958.7960968 -0.2117157 C959.58577538 -0.21240598 960.37545396 -0.21309627 961.1890622 -0.21380747 C978.35528182 -0.22877571 995.52150217 -0.24262609 1012.68772362 -0.25532665 C1021.10732698 -0.26156275 1029.52693013 -0.2680456 1037.9465332 -0.2746582 C1038.78433763 -0.275312 1039.62214205 -0.27596579 1040.48533449 -0.2766394 C1067.58917765 -0.29790582 1094.69296832 -0.33543205 1121.79677975 -0.3814861 C1149.67414629 -0.42876797 1177.55148385 -0.45945469 1205.42888981 -0.46957495 C1209.37595665 -0.4710155 1213.32302339 -0.47264368 1217.2700901 -0.47438622 C1218.04684856 -0.47472333 1218.82360701 -0.47506045 1219.6239036 -0.47540778 C1232.0742632 -0.48129202 1244.52453256 -0.50441603 1256.97485552 -0.53416017 C1269.52393947 -0.56376605 1282.07293493 -0.57479784 1294.62205251 -0.56750689 C1301.40837052 -0.56406354 1308.19441091 -0.5690163 1314.98068428 -0.59602737 C1350.46809409 -0.73005909 1383.66991007 -0.35180486 1416.9375 13.6875 C1417.97237549 14.12392822 1419.00725098 14.56035645 1420.07348633 15.01000977 C1436.41949535 22.05770396 1449.4819772 31.35616792 1462 44 C1462.55042969 44.50402344 1463.10085938 45.00804687 1463.66796875 45.52734375 C1487.04148855 67.21845082 1497.87356627 101.68326636 1499.109375 132.74951172 C1500.20054861 172.85696172 1490.58319046 209.86600008 1463 240 C1455.5488088 247.82575314 1447.09901027 254.19804287 1438 260 C1436.94554687 260.67804688 1435.89109375 261.35609375 1434.8046875 262.0546875 C1425.48065021 267.71964632 1415.60834622 271.54256082 1405.34130859 275.171875 C1403.43567184 275.8459021 1401.53869503 276.54437438 1399.64453125 277.25 C1380.32986418 283.92281346 1359.47975872 284.60153556 1339.26123047 284.60717773 C1336.72609642 284.62221893 1334.19097145 284.63885799 1331.65585709 284.65691566 C1325.40450241 284.69659939 1319.15331844 284.71760897 1312.90185764 284.73006581 C1307.64028008 284.74112641 1302.37880054 284.76143024 1297.11727524 284.78719902 C1296.34734328 284.79095333 1295.57741132 284.79470765 1294.78414809 284.79857573 C1294.00697354 284.80236718 1293.22979899 284.80615863 1292.42907369 284.81006497 C1270.28281511 284.91806293 1248.13651406 284.96279651 1225.99003386 284.99555624 C1222.96178591 285.00005679 1219.93353826 285.00472812 1216.9052906 285.00942707 C1152.58025043 285.108223 1088.25526964 285.10251096 1023.93017936 285.07203043 C1006.73747014 285.0639701 989.54476148 285.05859587 972.35205078 285.05493164 C971.12287139 285.05466892 969.893692 285.05440619 968.62726475 285.05413551 C962.45444864 285.05282949 956.28163251 285.05156602 950.10881639 285.05032361 C899.73920783 285.04013164 849.36960449 285.02238559 799 285 C798.67 261.24 798.34 237.48 798 213 C795.69 216.96 793.38 220.92 791 225 C768.23547123 255.11922269 736.72623153 273.39999988 700 281 C698.7349614 281.26903641 697.46992279 281.53807281 696.16654968 281.81526184 C682.52124923 284.50675056 668.94583 284.47711281 655.08203125 284.51171875 C652.49158413 284.5286276 649.9011449 284.54678575 647.31071472 284.56611633 C641.21066928 284.60854825 635.11068805 284.6381745 629.01054353 284.66143972 C622.18077712 284.68825636 615.35115801 284.73241934 608.52149332 284.77771449 C594.03080164 284.87315336 579.54007741 284.93988394 565.04916 284.98946381 C562.32212756 284.99888691 559.59510041 285.00919569 556.86807251 285.01983643 C537.95105207 285.09034774 519.04392843 284.87287428 500.1305542 284.53643799 C496.59553297 284.47415284 493.06045955 284.41497413 489.52539062 284.35546875 C482.68354235 284.23987543 475.84175331 284.12108178 469 284 C466.94048157 280.09430404 465.38329182 276.37549302 464.2109375 272.12109375 C463.90929687 271.03505859 463.60765625 269.94902344 463.296875 268.83007812 C462.99265625 267.71052734 462.6884375 266.59097656 462.375 265.4375 C462.06304688 264.31408203 461.75109375 263.19066406 461.4296875 262.03320312 C460.14141053 257.36042266 458.95142137 252.75710683 458 248 C421.7 248 385.4 248 348 248 C346.68 253.61 345.36 259.22 344 265 C343.15844343 267.78779792 342.28088979 270.56618321 341.3125 273.3125 C340.07244666 276.86373635 338.87832592 280.34401157 338 284 C330.3212639 284.1335311 322.64248198 284.26403413 314.96363735 284.39115143 C311.39410905 284.45032714 307.82460072 284.51036885 304.25512695 284.57275391 C274.34745588 285.09397488 244.47111258 285.10306752 214.5625 284.5 C206.126875 284.335 197.69125 284.17 189 284 C189 248.36 189 212.72 189 176 C155.34 176 121.68 176 87 176 C87 211.97 87 247.94 87 285 C58.29 285 29.58 285 0 285 C0 190.95 0 96.9 0 0 Z " fill="#000000" transform="translate(258,816)"/>
<path d="M0 0 C72.45972495 0 72.45972495 0 92.1796875 17.98828125 C96.35807848 22.30486804 99.42443613 27.08283467 102.3125 32.3125 C102.63822998 32.89201416 102.96395996 33.47152832 103.29956055 34.06860352 C111.36040117 49.47958906 112.27136398 72.06149138 107.20361328 88.53613281 C104.49611906 95.91832548 100.76517718 102.74816631 96 109 C95.35546875 109.84949219 94.7109375 110.69898438 94.046875 111.57421875 C83.77519984 123.99533705 69.63715373 130.87256925 54 134 C36.18 134 18.36 134 0 134 C0 89.78 0 45.56 0 0 Z " fill="#FEFEFE" transform="translate(1560,891)"/>
<path d="M0 0 C63.80434783 0 63.80434783 0 78 8 C78.93457031 8.515625 79.86914062 9.03125 80.83203125 9.5625 C93.21631047 16.88125324 102.43238933 28.77393706 106.4453125 42.6953125 C106.71988281 43.83613281 106.71988281 43.83613281 107 45 C107.30550781 46.26457031 107.30550781 46.26457031 107.6171875 47.5546875 C111.69700299 67.73021341 109.43267026 88.63592457 98 106 C86.09379891 123.08281025 70.97221838 129.72023892 51 134 C34.17 134 17.34 134 0 134 C0 89.78 0 45.56 0 0 Z " fill="#FEFEFE" transform="translate(876,891)"/>
<path d="M0 0 C0.89874816 0.00092179 1.79749632 0.00184359 2.72347927 0.00279331 C3.75138073 0.00141865 4.77928219 0.00004398 5.83833218 -0.00137234 C6.975527 0.00222294 8.11272182 0.00581821 9.2843771 0.00952244 C10.47445873 0.00937641 11.66454037 0.00923038 12.89068508 0.00907993 C16.16326569 0.00965889 19.43580402 0.01468801 22.70837617 0.02165389 C26.1250196 0.02788815 29.54166379 0.02849128 32.95831203 0.0296793 C39.43232563 0.0327924 45.90632242 0.0410055 52.3803286 0.05102879 C59.74901216 0.06219058 67.11769651 0.06770054 74.48638642 0.07272422 C89.64814488 0.08318813 104.80988662 0.10098765 119.97163296 0.12304783 C119.97163296 5.73304783 119.97163296 11.34304783 119.97163296 17.12304783 C138.78163296 17.12304783 157.59163296 17.12304783 176.97163296 17.12304783 C176.97163296 23.72304783 176.97163296 30.32304783 176.97163296 37.12304783 C117.57163296 37.12304783 58.17163296 37.12304783 -3.02836704 37.12304783 C-3.02836704 0.18371132 -3.02836704 0.18371132 0 0 Z " fill="#F8F8F8" transform="translate(1146.0283670425415,991.8769521713257)"/>
<path d="M0 0 C40.26 0 80.52 0 122 0 C122 12.21 122 24.42 122 37 C81.74 37 41.48 37 0 37 C0 24.79 0 12.58 0 0 Z " fill="#F9F9F9" transform="translate(1352,992)"/>
<path d="M0 0 C40.26 0 80.52 0 122 0 C122 10.89 122 21.78 122 33 C81.74 33 41.48 33 0 33 C0 22.11 0 11.22 0 0 Z " fill="#FEFEFE" transform="translate(1352,888)"/>
<path d="M0 0 C39.93 0 79.86 0 121 0 C121 10.89 121 21.78 121 33 C81.07 33 41.14 33 0 33 C0 22.11 0 11.22 0 0 Z " fill="#FFFFFF" transform="translate(1144,888)"/>
<path d="M0 0 C0.66 0 1.32 0 2 0 C4.207013 6.7397898 6.41221047 13.48017173 8.61621094 20.22094727 C9.36450154 22.50884094 10.11319115 24.79660416 10.86230469 27.08422852 C18.05719827 49.0574335 18.05719827 49.0574335 21.03808594 58.88891602 C22.24951747 62.80700537 23.52072511 66.70415373 24.796875 70.6015625 C25.03815125 71.33971695 25.27942749 72.0778714 25.52801514 72.83839417 C26.52275339 75.88026501 27.51826421 78.92185747 28.52001953 81.96142578 C29.26211836 84.21518987 29.99869944 86.47069494 30.734375 88.7265625 C30.96243835 89.41400543 31.19050171 90.10144836 31.42547607 90.8097229 C32.35384051 93.66900059 33 95.97153542 33 99 C11.88 99 -9.24 99 -31 99 C-29.74566039 93.35547177 -28.52837239 88.19544564 -26.75683594 82.76220703 C-26.54184952 82.09890884 -26.3268631 81.43561066 -26.10536194 80.75221252 C-25.40225869 78.58612434 -24.69333676 76.42198948 -23.984375 74.2578125 C-23.48555398 72.7244811 -22.98712826 71.19102105 -22.48907471 69.65744019 C-21.17983314 65.62930549 -19.8657577 61.60276502 -18.55047607 57.57659912 C-16.46266142 51.1822986 -14.38287519 44.78537766 -12.30152893 38.38896942 C-11.55326115 36.08993379 -10.80442156 33.79108495 -10.05554199 31.49224854 C-6.64377874 21.01353277 -3.27865324 10.5212374 0 0 Z " fill="#FBFBFB" transform="translate(660,893)"/>
<path d="M0 0 C4.90180174 2.78985524 8.51285559 5.64026478 11.5 10.4375 C11.90992188 11.09363281 12.31984375 11.74976563 12.7421875 12.42578125 C16.1361951 18.82758179 16.58455169 25.33410041 15.5 32.4375 C12.5667988 41.16455093 8.26902506 47.19624564 0.2890625 51.6796875 C-7.46455282 55.3181154 -15.62031913 56.07953292 -23.78515625 53.33203125 C-32.14558464 49.46779359 -37.05194056 45.01913299 -40.875 36.6875 C-43.86547454 28.3945874 -43.40786024 20.70738853 -39.7421875 12.71875 C-31.79847754 -1.86969848 -15.04309463 -6.9071635 0 0 Z " fill="#070707" transform="translate(1093.5,1322.5625)"/>
<path d="M0 0 C6.9401258 4.27733448 12.33124959 10.3639436 14.25 18.38671875 C15.21280309 26.9416254 14.81316844 34.914864 10.25 42.38671875 C4.68289128 49.35220076 -2.06621931 53.74695671 -11.046875 54.7578125 C-20.73602992 54.9441424 -27.06413621 53.23954009 -34.5625 47.07421875 C-42.29849887 37.56999157 -43.8894622 29.46797767 -42.75 17.38671875 C-41.82306745 14.03439275 -40.77127171 12.30633345 -38.75 9.38671875 C-38.21375 8.52046875 -37.6775 7.65421875 -37.125 6.76171875 C-27.23124222 -3.13203903 -12.82090934 -6.00980125 0 0 Z " fill="#070707" transform="translate(802.75,1207.61328125)"/>
<path d="M0 0 C4.5375 -0.103125 9.075 -0.20625 13.75 -0.3125 C15.85713379 -0.38078003 15.85713379 -0.38078003 18.00683594 -0.45043945 C27.30400918 -0.5516092 36.08147255 0.616026 43.26660156 7.02026367 C48.9928756 13.13342708 51.57303969 18.99429644 51.5 27.3125 C51.49427979 28.0650708 51.48855957 28.8176416 51.48266602 29.59301758 C51.22476132 37.6262714 48.58619593 42.75771198 42.8125 48.3125 C33.77133236 55.10700531 24.89781407 55.53209217 13.875 55.25 C9.29625 55.1675 4.7175 55.085 0 55 C0 36.85 0 18.7 0 0 Z " fill="#060606" transform="translate(654,1321)"/>
<path d="M0 0 C4.29 0 8.58 0 13 0 C14.12436564 4.30414655 15.24526161 8.60917762 16.36303711 12.91503906 C16.74328352 14.37784844 17.124455 15.84041769 17.5065918 17.30273438 C18.05764874 19.41212576 18.6053053 21.5223759 19.15234375 23.6328125 C19.48226318 24.90012207 19.81218262 26.16743164 20.15209961 27.47314453 C20.91383394 30.64159085 21.51236095 33.77941502 22 37 C25.09741523 27.44414449 27.9081051 17.8578412 30.38745117 8.12182617 C31.90567223 2.18865555 31.90567223 2.18865555 33 0 C35.97 0 38.94 0 42 0 C44.02297545 5.69934429 45.49248988 11.52406964 47 17.375 C47.39058594 18.87933594 47.39058594 18.87933594 47.7890625 20.4140625 C49.22014985 25.93603593 50.62581043 31.46360163 52 37 C54.54111534 29.80270923 56.39751356 22.55579593 58.125 15.125 C58.6473107 12.8981729 59.17069741 10.67159784 59.6953125 8.4453125 C59.92234863 7.47094238 60.14938477 6.49657227 60.38330078 5.49267578 C61 3 61 3 62 0 C66.29 0 70.58 0 75 0 C73.15830082 9.64183688 70.61332022 18.84834726 67.70458984 28.21337891 C64.94857296 37.09322725 62.43103291 46.02646379 60 55 C55.71 55 51.42 55 47 55 C45.87609996 50.98058527 44.75414342 46.96072693 43.63696289 42.93945312 C43.25689051 41.57358317 42.87572248 40.20801757 42.4934082 38.84277344 C41.94188921 36.87254912 41.39440986 34.90123884 40.84765625 32.9296875 C40.51773682 31.74616699 40.18781738 30.56264648 39.84790039 29.34326172 C39.05999294 26.23655149 38.47457505 23.1680521 38 20 C36.0623445 23.4309674 35.20382819 26.83837688 34.30859375 30.6640625 C34.158423 31.29734467 34.00825226 31.93062683 33.85353088 32.58309937 C33.37683321 34.59599531 32.90673381 36.61035222 32.4375 38.625 C31.81433108 41.28461286 31.18714987 43.94321049 30.55859375 46.6015625 C30.28329834 47.78057129 30.00800293 48.95958008 29.72436523 50.17431641 C29 53 29 53 28 55 C23.71 55 19.42 55 15 55 C14.50371094 53.24558594 14.00742187 51.49117187 13.49609375 49.68359375 C12.81040924 47.26808337 12.12417083 44.85273018 11.4375 42.4375 C11.07978516 41.17873047 10.72207031 39.91996094 10.35351562 38.62304688 C7.72646092 29.41198272 4.97960756 20.2415924 2.08374023 11.11108398 C1.67103882 9.78765991 1.67103882 9.78765991 1.25 8.4375 C1.00765625 7.67308594 0.7653125 6.90867187 0.515625 6.12109375 C0 4 0 4 0 0 Z " fill="#050505" transform="translate(1002,1206)"/>
<path d="M0 0 C4.95 -0.0825 9.9 -0.165 15 -0.25 C17.31837891 -0.30462402 17.31837891 -0.30462402 19.68359375 -0.36035156 C27.08348782 -0.42002813 32.70056535 -0.29329499 39 4 C43.96848864 9.35068008 44.29162668 12.88334401 44.21484375 20.015625 C43.84395491 25.16760809 42.18275556 27.87638222 38.5 31.375 C36 33 36 33 33 33 C33.36351562 33.66644531 33.72703125 34.33289062 34.1015625 35.01953125 C37.734375 41.6796875 41.3671875 48.33984375 45 55 C40.38 55 35.76 55 31 55 C29.32818524 52.04447033 27.66237821 49.08583038 26 46.125 C25.52304688 45.28324219 25.04609375 44.44148438 24.5546875 43.57421875 C24.10351562 42.76855469 23.65234375 41.96289062 23.1875 41.1328125 C22.76855469 40.38918457 22.34960938 39.64555664 21.91796875 38.87939453 C21 37 21 37 21 35 C18.03 35 15.06 35 12 35 C12 41.6 12 48.2 12 55 C8.04 55 4.08 55 0 55 C0 36.85 0 18.7 0 0 Z " fill="#050505" transform="translate(1303,1321)"/>
<path d="M0 0 C4.95 -0.0825 9.9 -0.165 15 -0.25 C17.31837891 -0.30462402 17.31837891 -0.30462402 19.68359375 -0.36035156 C28.02910221 -0.42765405 34.49382965 -0.29963754 40.875 5.7890625 C44.15905126 11.1484517 45.0764262 15.76857862 44 22 C42.41786818 26.74639546 40.42713594 30.42940494 36 33 C35.01 33.66 34.02 34.32 33 35 C33.49983398 35.80219971 33.49983398 35.80219971 34.00976562 36.62060547 C35.51112495 39.03590415 37.00563105 41.45537067 38.5 43.875 C39.02464844 44.71675781 39.54929687 45.55851562 40.08984375 46.42578125 C40.58613281 47.23144531 41.08242187 48.03710938 41.59375 48.8671875 C42.05458984 49.61081543 42.51542969 50.35444336 42.99023438 51.12060547 C44 53 44 53 44 55 C39.71 55 35.42 55 31 55 C29.51494131 52.41989804 28.03682689 49.83622441 26.5625 47.25 C26.14162109 46.52039062 25.72074219 45.79078125 25.28710938 45.0390625 C24.68286133 43.97558594 24.68286133 43.97558594 24.06640625 42.890625 C23.69459229 42.24125977 23.32277832 41.59189453 22.93969727 40.92285156 C22 39 22 39 21 35 C18.03 35 15.06 35 12 35 C12 41.6 12 48.2 12 55 C8.04 55 4.08 55 0 55 C0 36.85 0 18.7 0 0 Z " fill="#040404" transform="translate(1197,1206)"/>
<path d="M0 0 C1.39456452 0.00667256 2.78911118 0.01863093 4.18359375 0.03515625 C4.89451172 0.03966797 5.60542969 0.04417969 6.33789062 0.04882812 C8.09899388 0.06064761 9.86005411 0.07858362 11.62109375 0.09765625 C15.89033623 10.12380901 19.87035736 20.26036523 23.83422852 30.41015625 C24.94531836 33.25265126 26.06148616 36.09312111 27.17773438 38.93359375 C27.88442516 40.740764 28.59081664 42.54805132 29.296875 44.35546875 C29.79831779 45.62875534 29.79831779 45.62875534 30.30989075 46.92776489 C30.76618111 48.10071609 30.76618111 48.10071609 31.23168945 49.29736328 C31.50084671 49.9850882 31.77000397 50.67281311 32.0473175 51.38137817 C32.62109375 53.09765625 32.62109375 53.09765625 32.62109375 55.09765625 C28.33109375 55.09765625 24.04109375 55.09765625 19.62109375 55.09765625 C18.63109375 52.45765625 17.64109375 49.81765625 16.62109375 47.09765625 C8.37109375 47.09765625 0.12109375 47.09765625 -8.37890625 47.09765625 C-9.36890625 49.73765625 -10.35890625 52.37765625 -11.37890625 55.09765625 C-15.66890625 55.09765625 -19.95890625 55.09765625 -24.37890625 55.09765625 C-22.36024663 48.09771971 -20.04359299 41.3184134 -17.40234375 34.53125 C-17.0316275 33.57114517 -16.66091125 32.61104034 -16.27896118 31.62184143 C-15.50256437 29.61364803 -14.72433452 27.60616242 -13.94433594 25.59936523 C-12.74572249 22.51409095 -11.55411062 19.42617657 -10.36328125 16.33789062 C-9.60587847 14.38135176 -8.84808043 12.42496585 -8.08984375 10.46875 C-7.73256195 9.54283554 -7.37528015 8.61692108 -7.00717163 7.66294861 C-6.67657745 6.81438797 -6.34598328 5.96582733 -6.00537109 5.09155273 C-5.56927017 3.96764381 -5.56927017 3.96764381 -5.12435913 2.82102966 C-3.80059027 -0.23932214 -3.66123175 0.10581595 0 0 Z " fill="#080808" transform="translate(1130.37890625,1205.90234375)"/>
<path d="M0 0 C4.95 -0.0825 9.9 -0.165 15 -0.25 C17.31837891 -0.30462402 17.31837891 -0.30462402 19.68359375 -0.36035156 C28.02910221 -0.42765405 34.49382965 -0.29963754 40.875 5.7890625 C44.17000036 11.16632003 45.04307488 15.75148475 44 22 C42.37189952 27.79441973 39.44577199 30.94957224 34.35351562 33.99438477 C30.13583765 35.79652331 26.00760502 35.52374725 21.5 35.3125 C18.365 35.209375 15.23 35.10625 12 35 C12 41.6 12 48.2 12 55 C8.04 55 4.08 55 0 55 C0 36.85 0 18.7 0 0 Z " fill="#040404" transform="translate(1146,1321)"/>
<path d="M0 0 C12.87 0 25.74 0 39 0 C39 3.3 39 6.6 39 10 C30.09 10 21.18 10 12 10 C12 13.96 12 17.92 12 22 C20.91 22 29.82 22 39 22 C39 25.3 39 28.6 39 32 C30.09 32 21.18 32 12 32 C12 36.29 12 40.58 12 45 C20.91 45 29.82 45 39 45 C39 48.3 39 51.6 39 55 C26.13 55 13.26 55 0 55 C0 36.85 0 18.7 0 0 Z " fill="#030303" transform="translate(1226,1321)"/>
<path d="M0 0 C12.87 0 25.74 0 39 0 C39 3.3 39 6.6 39 10 C30.09 10 21.18 10 12 10 C12 13.96 12 17.92 12 22 C20.58 22 29.16 22 38 22 C38 25.3 38 28.6 38 32 C29.42 32 20.84 32 12 32 C12 36.29 12 40.58 12 45 C20.91 45 29.82 45 39 45 C39 48.3 39 51.6 39 55 C26.13 55 13.26 55 0 55 C0 36.85 0 18.7 0 0 Z " fill="#010101" transform="translate(905,1321)"/>
<path d="M0 0 C12.87 0 25.74 0 39 0 C39 3.3 39 6.6 39 10 C30.09 10 21.18 10 12 10 C12 13.96 12 17.92 12 22 C20.58 22 29.16 22 38 22 C38 25.3 38 28.6 38 32 C29.42 32 20.84 32 12 32 C12 36.29 12 40.58 12 45 C20.91 45 29.82 45 39 45 C39 48.3 39 51.6 39 55 C26.13 55 13.26 55 0 55 C0 36.85 0 18.7 0 0 Z " fill="#010101" transform="translate(1279,1206)"/>
<path d="M0 0 C12.87 0 25.74 0 39 0 C39 3.3 39 6.6 39 10 C29.76 10 20.52 10 11 10 C11 13.96 11 17.92 11 22 C19.91 22 28.82 22 38 22 C38 25.3 38 28.6 38 32 C29.09 32 20.18 32 11 32 C11 36.29 11 40.58 11 45 C20.24 45 29.48 45 39 45 C39 48.3 39 51.6 39 55 C26.13 55 13.26 55 0 55 C0 36.85 0 18.7 0 0 Z " fill="#010101" transform="translate(743,1321)"/>
<path d="M0 0 C2.35109701 1.17358599 4.29760774 2.52191709 6.33984375 4.16796875 C4.81275412 7.60392041 2.7405733 10.28709329 0.33984375 13.16796875 C-0.15515625 12.89984375 -0.65015625 12.63171875 -1.16015625 12.35546875 C-7.51145853 9.33860017 -12.54425611 7.56492637 -19.66015625 8.16796875 C-20.65015625 8.82796875 -21.64015625 9.48796875 -22.66015625 10.16796875 C-22.91046602 12.75177052 -22.91046602 12.75177052 -22.66015625 15.16796875 C-18.96536457 17.26501268 -15.53994145 18.51784477 -11.41015625 19.54296875 C-4.86567961 21.25955279 1.66210324 23.41147117 6.46484375 28.35546875 C8.16969827 33.83535827 8.05592189 39.05951644 6.21484375 44.48046875 C2.99983565 49.08864702 -0.81063783 52.59935676 -6.41796875 53.8828125 C-18.98910502 55.4815807 -27.53334454 53.43850023 -37.66015625 46.16796875 C-36.1617952 43.0559881 -34.46081867 40.11450725 -32.66015625 37.16796875 C-29.76786244 37.63073576 -27.59483012 38.70775691 -25.09765625 40.16796875 C-20.2432801 42.99233305 -16.22244507 43.7631553 -10.66015625 43.16796875 C-7.64034524 42.17600902 -7.64034524 42.17600902 -5.66015625 40.16796875 C-4.82682292 37.66796875 -4.82682292 37.66796875 -5.66015625 35.16796875 C-10.55234294 31.54719781 -16.14494154 30.68564241 -21.96875 29.328125 C-26.92721428 27.76975051 -31.31426762 25.21825499 -34.66015625 21.16796875 C-36.01698074 17.09749528 -36.18487879 13.42405158 -35.66015625 9.16796875 C-28.40555843 -5.07253808 -13.38882134 -5.25486071 0 0 Z " fill="#060606" transform="translate(717.66015625,1207.83203125)"/>
<path d="M0 0 C4.62 0 9.24 0 14 0 C18.62 12.87 23.24 25.74 28 39 C30.35364157 35.46953765 31.63060852 31.79970372 33.0390625 27.83203125 C33.32478119 27.03721848 33.61049988 26.2424057 33.90487671 25.42350769 C34.81540318 22.88785548 35.72026512 20.35022373 36.625 17.8125 C37.24181516 16.09166337 37.85899829 14.37095858 38.4765625 12.65039062 C39.98864696 8.43511103 41.49565477 4.21804744 43 0 C47.62 0 52.24 0 57 0 C52.70674372 12.49214104 48.01290167 24.7921245 43.125 37.0625 C42.42939492 38.81563915 41.734081 40.56889385 41.0390625 42.32226562 C39.36271193 46.54951015 37.68248725 50.7751944 36 55 C31.05 55 26.1 55 21 55 C18.48850279 48.61484407 15.98006096 42.22849927 13.47436523 35.84106445 C12.62265233 33.67114364 11.77012525 31.50154221 10.91674805 29.33227539 C9.68581112 26.20283562 8.45786794 23.07223498 7.23046875 19.94140625 C6.85222458 18.98166397 6.47398041 18.02192169 6.08427429 17.03309631 C3.88115964 11.40353048 1.86225562 5.75161384 0 0 Z " fill="#050505" transform="translate(814,1321)"/>
<path d="M0 0 C12.87 0 25.74 0 39 0 C39 3.3 39 6.6 39 10 C30.09 10 21.18 10 12 10 C12 13.96 12 17.92 12 22 C20.91 22 29.82 22 39 22 C39 25.3 39 28.6 39 32 C30.09 32 21.18 32 12 32 C12 39.59 12 47.18 12 55 C8.04 55 4.08 55 0 55 C0 36.85 0 18.7 0 0 Z " fill="#040404" transform="translate(854,1206)"/>
<path d="M0 0 C14.52 0 29.04 0 44 0 C44 3.3 44 6.6 44 10 C38.72 10 33.44 10 28 10 C28 24.85 28 39.7 28 55 C24.04 55 20.08 55 16 55 C16 40.15 16 25.3 16 10 C10.72 10 5.44 10 0 10 C0 6.7 0 3.4 0 0 Z " fill="#030303" transform="translate(927,1206)"/>
<path d="M0 0 C5.46013978 2.34005991 8.79683606 6.54365357 11 12 C12.07980584 17.9154581 11.29731425 23.05579579 8.23828125 28.23828125 C6.11040994 31.26563128 4.42998438 33.57138846 1 35 C-4.88655241 35.84736359 -10.08053992 35.84186846 -15.5625 33.4375 C-20.95825886 28.04174114 -22.26013504 24.5252283 -22.5 16.9375 C-22.28553971 9.96384304 -20.81879321 6.66164794 -15.7578125 1.8828125 C-10.91241975 -1.42523185 -5.64479841 -0.68335517 0 0 Z " fill="#FBFBFB" transform="translate(1086,1331)"/>
<path d="M0 0 C4.58096658 2.27390961 6.97814309 4.97085746 10 9 C11.87894454 14.63683363 11.74720942 20.75837174 9.875 26.375 C7.2157355 30.0979703 4.13912885 32.93043557 0 35 C-5.48320778 35.50071209 -10.39459862 35.68802916 -15.5 33.5 C-20.26650179 28.73349821 -22.21852992 24.26466424 -22.5 17.5 C-22.21852992 10.73533576 -20.26650179 6.26650179 -15.5 1.5 C-10.41755298 -0.67819158 -5.45285815 -0.81462618 0 0 Z " fill="#FCFCFC" transform="translate(794,1216)"/>
<path d="M0 0 C3.96 0 7.92 0 12 0 C12 14.85 12 29.7 12 45 C19.59 45 27.18 45 35 45 C35 48.3 35 51.6 35 55 C23.45 55 11.9 55 0 55 C0 36.85 0 18.7 0 0 Z " fill="#040404" transform="translate(982,1321)"/>
<path d="M0 0 C17.81333333 0 17.81333333 0 23 5 C26.72092544 8.81394857 27.27795418 11.83709733 27.4375 17 C27.20951987 23.14026486 26.1719465 26.94236647 21.625 31.25 C13.99860883 36.33426078 10.2841234 35 0 35 C0 23.45 0 11.9 0 0 Z " fill="#F9F9F9" transform="translate(666,1331)"/>
<path d="M0 0 C3.58875 -0.061875 3.58875 -0.061875 7.25 -0.125 C7.99668945 -0.14320801 8.74337891 -0.16141602 9.51269531 -0.18017578 C13.17143856 -0.21068171 15.96432456 -0.14901776 19 2 C20.54586876 5.09173752 20.29359521 7.59429552 20 11 C18.49609375 13.2109375 18.49609375 13.2109375 16 15 C13.10550051 15.2906124 10.62050065 15.38186045 7.75 15.25 C6.63238281 15.22292969 6.63238281 15.22292969 5.4921875 15.1953125 C3.66090299 15.14835649 1.83028351 15.07661652 0 15 C0 10.05 0 5.1 0 0 Z " fill="#FDFDFD" transform="translate(1315,1331)"/>
<path d="M0 0 C3.5578125 -0.12375 3.5578125 -0.12375 7.1875 -0.25 C7.92508545 -0.28641602 8.6626709 -0.32283203 9.42260742 -0.36035156 C12.96873531 -0.41973304 14.90906325 -0.05533188 17.953125 1.796875 C20 4 20 4 20.5625 7.5 C19.89962447 11.62455887 19.34454101 12.57718289 16 15 C13.10550051 15.2906124 10.62050065 15.38186045 7.75 15.25 C6.63238281 15.22292969 6.63238281 15.22292969 5.4921875 15.1953125 C3.66090299 15.14835649 1.83028351 15.07661652 0 15 C0 10.05 0 5.1 0 0 Z " fill="#FDFDFD" transform="translate(1158,1331)"/>
<path d="M0 0 C3.5578125 -0.12375 3.5578125 -0.12375 7.1875 -0.25 C7.92508545 -0.28641602 8.6626709 -0.32283203 9.42260742 -0.36035156 C12.96768883 -0.41971552 14.90713299 -0.05658123 17.94921875 1.796875 C20 4 20 4 20.625 7.5 C20 11 20 11 17.94921875 13.203125 C14.27574645 15.44126706 11.33720759 15.45487906 7.1875 15.25 C4.815625 15.1675 2.44375 15.085 0 15 C0 10.05 0 5.1 0 0 Z " fill="#FDFDFD" transform="translate(1209,1216)"/>
<path d="M0 0 C2.6983845 1.34919225 2.74773003 2.55116176 3.7265625 5.3671875 C4.0359375 6.25277344 4.3453125 7.13835937 4.6640625 8.05078125 C4.98117187 8.98277344 5.29828125 9.91476562 5.625 10.875 C5.94984375 11.79925781 6.2746875 12.72351562 6.609375 13.67578125 C9 20.59654018 9 20.59654018 9 24 C3.39 24 -2.22 24 -8 24 C-4.25531915 4.25531915 -4.25531915 4.25531915 0 0 Z " fill="#F3F3F3" transform="translate(1134,1217)"/>
</svg>
